<svg xmlns="http://www.w3.org/2000/svg" xml:space="preserve" viewBox="0 0 1080 1080"><g fill="#0823a8" stroke-width="0"><path d="M-.00006163-.0001237h1079.99968111v1079.99968112H-.00006163z" paint-order="stroke fill markers"/><g fill="#fff"><path d="M798.46815072 518.15993918c5.19762699-24.65643389 10.4122245-48.79579976 15.41628931-72.97877162 3.839027-18.55292587 16.51415163-28.04349645 35.33359976-26.11662946 13.76178903 1.40906843 20.13118454 9.96660754 17.28701106 23.63242988-6.5296993 31.3749048-13.21991795 62.71632367-19.78652843 94.08358755-7.09788248 33.90540506-14.16536892 67.81716957-21.17583584 101.74077872-3.90379524 18.89056384-14.75277418 28.71472437-32.0735706 28.49052663-11.84428755-.15328563-19.73930557-6.37648553-24.65243377-16.8481368-9.65172469-20.57116064-19.32339003-41.13296773-28.99118701-61.6966072-8.64756552-18.39379578-17.27297475-36.79817868-25.99414707-55.15696751-.9022522-1.89933331-1.42110468-4.1738146-4.05438619-5.69491003-3.00424971 7.32627195-3.6307818 15.06632766-5.23952034 22.49867436-6.57311366 30.36827851-12.72532959 60.82755352-19.25868168 91.20465862-4.21257014 19.58617565-22.4032945 30.35577518-40.75900541 24.48592624-9.0005572-2.8782343-13.07153066-9.86668864-12.26160435-19.35210938 1.15867835-13.56793942 4.76247738-26.63653587 7.49992939-39.8720231 10.53334157-50.92802567 21.26756289-101.814649 32.0472585-152.6912601 1.19420028-5.63628566 2.73817059-11.2760924 4.85464756-16.62342407 4.6183417-11.66801927 13.3071299-18.11002755 26.04679521-18.63267655 12.44800465-.51078042 21.69877227 4.6497198 26.99727627 15.99010139 12.06344324 25.81901654 23.9352046 51.72761636 35.87511155 77.60433508 6.68291306 14.4835333 13.34110688 28.97843217 20.02578047 43.46115107.7257803 1.57262978 1.31714974 3.28217347 3.57748693 4.580173 4.20970779-13.90002036 5.85923787-27.95570963 9.28571468-42.10882672M511.27344466 527.96654235c5.68213123-27.40985041 11.2290971-54.3339151 16.87416146-81.23741634 5.01905923-23.92029403 23.45801792-29.11748986 41.47813883-24.28253147 10.07816747 2.70407386 13.69081703 11.93540383 10.94401147 25.05806163-4.36496951 20.8532881-8.52716702 41.75155947-13.17313822 62.5418758-1.2982151 5.80946405.66519182 6.85399557 5.86633986 6.81466515 22.938878-.1734179 45.87994767-.06527124 68.82021493-.05030077 8.84383435.00598819 8.97454451.04251613 7.3068822 8.41212197-2.5682977 12.88940592-5.5134919 25.70585177-7.93018066 38.62220454-.92286353 4.93243411-3.2604603 6.44343346-8.12038945 6.40249821-23.73660038-.19984977-47.47692542.03485125-71.21279524-.2007959-5.41106995-.05365416-7.71045011 1.72993946-8.78206022 7.1405064-4.41270734 22.28099176-9.1504056 44.5003052-14.01880204 66.68743811-4.0841355 18.61286764-18.48667256 28.26019699-37.28104216 25.36521972-11.4980266-1.7709346-17.83126545-10.40184098-15.49479445-21.9796063 5.3205046-26.36432484 10.94130482-52.66790551 16.42022092-79.00036122 2.759261-13.26158376 5.4752154-26.53226956 8.30323277-40.2935915z"/><path d="M685.2493699 235.29256088c29.52077033 13.80218535 56.45804496 30.64654959 79.68493082 53.1067199 17.42055962 16.84539421 24.28044758 37.1606796 17.60309155 60.42812944-6.51368688 22.69729056-22.5858983 37.0002321-45.61352123 42.03708823-17.27210047 3.77792354-33.65767374.32842813-48.08684627-10.61207427-25.18350218-19.09461731-51.19812885-36.7812321-81.09659813-47.93580023-29.289267-10.92723257-59.78889042-12.8944839-90.26739949-9.48201944-75.87304228 8.4948308-131.90864457 48.04980334-169.45316698 113.68802717-22.07483045 38.59293428-30.68554467 80.72018066-25.68151578 125.06219411 8.2490756 73.09696647 45.05161367 128.18814775 107.10134429 166.8422813 24.36094078 15.17573185 50.86893423 25.13314153 79.32155563 28.610997 36.66504929 4.48164335 72.92472224 2.31655428 107.55474589-12.00225595 25.24373137-10.43773418 48.14336278-24.9511126 69.31216849-42.156337 10.65477004-8.65992514 22.3490535-14.04241945 36.27883515-15.27953108 26.97278457-2.39534686 56.97410696 20.36802934 61.68366073 47.25097913 4.2206063 24.09193943-3.11850433 43.42942566-21.36829618 59.89613886-40.485465 36.52962045-87.29808486 60.59158301-140.0963173 73.15961489-31.92496773 7.59947701-64.23135905 10.67639937-97.23794914 9.25697138-62.04064055-2.66807287-118.66654638-21.24146636-170.25926086-55.17296794-64.22831706-42.2418004-108.46988466-100.210701-133.83171506-172.7626466-12.7729716-36.53934526-18.98515325-74.21916478-18.23684539-112.73614489 1.71544805-88.29751336 32.95870855-164.95304408 93.61864073-229.26556703 44.11580368-46.77225947 97.80497062-78.08156967 159.8711927-93.94612272 78.61491358-20.09448894 155.02805445-11.72778139 229.19926583 22.01232574m-279.2968257 82.35387798c36.58729867-21.83517121 75.8826234-34.6193527 118.64294095-37.13812808 31.68629056-1.86644619 62.54307343 1.72325664 92.55191698 11.57938212 35.33520459 11.60551457 65.98007748 31.8375402 95.45552921 53.96609666 9.25705522 6.94967484 18.98267414 6.1583119 26.45796812-2.37166956 6.91169776-7.88683816 6.02041593-17.25930971-2.61983203-25.35312358-6.84387554-6.4110254-13.77313066-12.74847992-21.50273099-18.11075811-70.3677063-48.81671052-148.00055712-66.69936659-231.9544788-50.29054718-90.24180597 17.63775118-157.88153357 68.40324546-202.70638656 148.52324206-33.33488648 59.58276504-42.6806028 123.83556181-32.07978633 190.98648564 9.36256708 59.3076198 35.0842157 111.20587555 76.6921425 154.03333267 71.34491861 73.43622124 158.52549128 103.67853224 260.3548353 89.44577226 41.8367594-5.84754893 80.7417022-20.13608288 116.2394741-43.23563593 13.07548286-8.50845993 25.25185135-18.218282 36.4071141-29.13341844 6.02151775-5.89177768 7.39905238-13.75360917 4.05599102-20.24595415-3.86914759-7.51425313-11.26944551-11.74772205-19.00781255-10.81988832-5.45998146.65473644-9.40873601 4.22418722-13.47042778 7.37347084-14.36887148 11.14108273-29.30278834 21.37998512-45.00314528 30.60495564-49.59895943 29.1424127-103.0610064 38.77226851-159.56626223 30.78755942-56.43950553-7.9754274-105.18772316-32.42531673-146.09902016-72.21124168-32.88364063-31.97905304-55.92456932-70.03935002-68.67643855-114.05304313-8.42870924-29.09226761-11.70792455-58.81917532-9.3388898-89.23528747 1.63479915-20.9893996 4.7367162-41.6376402 11.40782056-61.52285395 20.516225-61.15491576 58.35101882-108.84115228 113.75947823-143.57874773"/></g></g></svg>